<mxfile host="app.diagrams.net" agent="Mozilla/5.0 (Windows NT 10.0; Win64; x64) AppleWebKit/537.36 (KHTML, like Gecko) Chrome/140.0.0.0 Safari/537.36" version="28.2.3">
  <diagram name="BTMH-bài 1" id="GQAMc8YrZx8zWbdvVE4R">
    <mxGraphModel dx="2467" dy="2013" grid="1" gridSize="10" guides="1" tooltips="1" connect="1" arrows="1" fold="1" page="1" pageScale="1" pageWidth="827" pageHeight="1169" math="0" shadow="0">
      <root>
        <mxCell id="0" />
        <mxCell id="1" parent="0" />
        <mxCell id="FAJjrMWwDWymDbKwODyn-2" value="" style="ellipse;html=1;shape=startState;fillColor=#000000;strokeColor=#ff0000;" parent="1" vertex="1">
          <mxGeometry x="-180" y="-910" width="30" height="30" as="geometry" />
        </mxCell>
        <mxCell id="FAJjrMWwDWymDbKwODyn-3" value="" style="edgeStyle=orthogonalEdgeStyle;html=1;verticalAlign=bottom;endArrow=open;endSize=8;strokeColor=#ff0000;rounded=0;" parent="1" source="FAJjrMWwDWymDbKwODyn-2" edge="1">
          <mxGeometry relative="1" as="geometry">
            <mxPoint x="-165" y="-820" as="targetPoint" />
          </mxGeometry>
        </mxCell>
        <mxCell id="FAJjrMWwDWymDbKwODyn-6" value="" style="line;strokeWidth=4;html=1;perimeter=backbonePerimeter;points=[];outlineConnect=0;" parent="1" vertex="1">
          <mxGeometry x="-200" y="-820" width="70" height="10" as="geometry" />
        </mxCell>
        <mxCell id="FAJjrMWwDWymDbKwODyn-7" value="&lt;font style=&quot;vertical-align: inherit;&quot; dir=&quot;auto&quot;&gt;&lt;font style=&quot;vertical-align: inherit;&quot; dir=&quot;auto&quot;&gt;Nhap ma so sach\ tap chi&lt;/font&gt;&lt;/font&gt;" style="rounded=1;whiteSpace=wrap;html=1;" parent="1" vertex="1">
          <mxGeometry x="-480" y="-650" width="120" height="60" as="geometry" />
        </mxCell>
        <mxCell id="FAJjrMWwDWymDbKwODyn-8" value="&lt;font style=&quot;vertical-align: inherit;&quot; dir=&quot;auto&quot;&gt;&lt;font style=&quot;vertical-align: inherit;&quot; dir=&quot;auto&quot;&gt;Chon loại tim kiem&lt;/font&gt;&lt;/font&gt;" style="rounded=1;whiteSpace=wrap;html=1;" parent="1" vertex="1">
          <mxGeometry x="-225" y="-650" width="120" height="60" as="geometry" />
        </mxCell>
        <mxCell id="FAJjrMWwDWymDbKwODyn-9" value="&lt;font style=&quot;vertical-align: inherit;&quot; dir=&quot;auto&quot;&gt;&lt;font style=&quot;vertical-align: inherit;&quot; dir=&quot;auto&quot;&gt;Dang ky thanh vien&lt;/font&gt;&lt;/font&gt;" style="rounded=1;whiteSpace=wrap;html=1;" parent="1" vertex="1">
          <mxGeometry x="30" y="-650" width="120" height="60" as="geometry" />
        </mxCell>
        <mxCell id="FAJjrMWwDWymDbKwODyn-10" value="&lt;font style=&quot;vertical-align: inherit;&quot; dir=&quot;auto&quot;&gt;&lt;font style=&quot;vertical-align: inherit;&quot; dir=&quot;auto&quot;&gt;&lt;font style=&quot;vertical-align: inherit;&quot; dir=&quot;auto&quot;&gt;&lt;font style=&quot;vertical-align: inherit;&quot; dir=&quot;auto&quot;&gt;Xem chúng chi tiết trongADcủa&amp;nbsp;&lt;/font&gt;&lt;/font&gt;&lt;/font&gt;&lt;/font&gt;&lt;span style=&quot;background-color: transparent; color: light-dark(rgb(0, 0, 0), rgb(255, 255, 255));&quot;&gt;&lt;font style=&quot;vertical-align: inherit;&quot; dir=&quot;auto&quot;&gt;&lt;font style=&quot;vertical-align: inherit;&quot; dir=&quot;auto&quot;&gt;&quot;NV tiep tan&quot;&amp;nbsp;&lt;/font&gt;&lt;/font&gt;&lt;/span&gt;" style="shape=note;whiteSpace=wrap;html=1;backgroundOutline=1;darkOpacity=0.05;" parent="1" vertex="1">
          <mxGeometry x="-5" y="-820" width="190" height="50" as="geometry" />
        </mxCell>
        <mxCell id="FAJjrMWwDWymDbKwODyn-11" value="" style="endArrow=none;dashed=1;html=1;rounded=0;entryX=0.5;entryY=1;entryDx=0;entryDy=0;entryPerimeter=0;exitX=0.5;exitY=0;exitDx=0;exitDy=0;" parent="1" source="FAJjrMWwDWymDbKwODyn-9" target="FAJjrMWwDWymDbKwODyn-10" edge="1">
          <mxGeometry width="50" height="50" relative="1" as="geometry">
            <mxPoint x="-190" y="-550" as="sourcePoint" />
            <mxPoint x="-140" y="-600" as="targetPoint" />
          </mxGeometry>
        </mxCell>
        <mxCell id="FAJjrMWwDWymDbKwODyn-12" value="" style="endArrow=classic;html=1;rounded=0;entryX=0.5;entryY=0;entryDx=0;entryDy=0;" parent="1" source="FAJjrMWwDWymDbKwODyn-6" target="FAJjrMWwDWymDbKwODyn-7" edge="1">
          <mxGeometry width="50" height="50" relative="1" as="geometry">
            <mxPoint x="-190" y="-550" as="sourcePoint" />
            <mxPoint x="-140" y="-600" as="targetPoint" />
          </mxGeometry>
        </mxCell>
        <mxCell id="FAJjrMWwDWymDbKwODyn-13" value="" style="endArrow=classic;html=1;rounded=0;entryX=0.5;entryY=0;entryDx=0;entryDy=0;" parent="1" source="FAJjrMWwDWymDbKwODyn-6" target="FAJjrMWwDWymDbKwODyn-15" edge="1">
          <mxGeometry width="50" height="50" relative="1" as="geometry">
            <mxPoint x="-190" y="-550" as="sourcePoint" />
            <mxPoint x="-140" y="-600" as="targetPoint" />
          </mxGeometry>
        </mxCell>
        <mxCell id="FAJjrMWwDWymDbKwODyn-14" value="" style="endArrow=classic;html=1;rounded=0;entryX=0;entryY=0;entryDx=0;entryDy=0;" parent="1" source="FAJjrMWwDWymDbKwODyn-6" target="FAJjrMWwDWymDbKwODyn-9" edge="1">
          <mxGeometry width="50" height="50" relative="1" as="geometry">
            <mxPoint x="-190" y="-550" as="sourcePoint" />
            <mxPoint x="-140" y="-600" as="targetPoint" />
          </mxGeometry>
        </mxCell>
        <mxCell id="FAJjrMWwDWymDbKwODyn-15" value="" style="rhombus;whiteSpace=wrap;html=1;" parent="1" vertex="1">
          <mxGeometry x="-195" y="-750" width="60" height="30" as="geometry" />
        </mxCell>
        <mxCell id="FAJjrMWwDWymDbKwODyn-16" value="" style="endArrow=classic;html=1;rounded=0;exitX=0.5;exitY=1;exitDx=0;exitDy=0;entryX=0.5;entryY=0;entryDx=0;entryDy=0;" parent="1" source="FAJjrMWwDWymDbKwODyn-15" target="FAJjrMWwDWymDbKwODyn-8" edge="1">
          <mxGeometry width="50" height="50" relative="1" as="geometry">
            <mxPoint x="-190" y="-550" as="sourcePoint" />
            <mxPoint x="-140" y="-600" as="targetPoint" />
          </mxGeometry>
        </mxCell>
        <mxCell id="FAJjrMWwDWymDbKwODyn-20" value="" style="line;strokeWidth=17;html=1;perimeter=backbonePerimeter;points=[];outlineConnect=0;shadow=0;fillColor=#f5f5f5;fontColor=#333333;strokeColor=#666666;" parent="1" vertex="1">
          <mxGeometry x="-510" y="-1030" width="980" height="220" as="geometry" />
        </mxCell>
        <mxCell id="FAJjrMWwDWymDbKwODyn-21" value="Đoc gia" style="text;html=1;align=center;verticalAlign=middle;resizable=0;points=[];autosize=1;strokeColor=none;fillColor=none;" parent="1" vertex="1">
          <mxGeometry x="-270" y="-935" width="60" height="30" as="geometry" />
        </mxCell>
        <mxCell id="FAJjrMWwDWymDbKwODyn-22" value="NV tiep tan" style="text;html=1;align=center;verticalAlign=middle;resizable=0;points=[];autosize=1;strokeColor=none;fillColor=none;" parent="1" vertex="1">
          <mxGeometry x="50" y="-935" width="80" height="30" as="geometry" />
        </mxCell>
        <mxCell id="FAJjrMWwDWymDbKwODyn-24" value="Nhap thong tin cạn truy van" style="rounded=1;whiteSpace=wrap;html=1;" parent="1" vertex="1">
          <mxGeometry x="-225" y="-530" width="120" height="60" as="geometry" />
        </mxCell>
        <mxCell id="FAJjrMWwDWymDbKwODyn-25" value="" style="rhombus;whiteSpace=wrap;html=1;" parent="1" vertex="1">
          <mxGeometry x="-450" y="-550" width="60" height="30" as="geometry" />
        </mxCell>
        <mxCell id="FAJjrMWwDWymDbKwODyn-26" value="Lien ket danh sach ket qua" style="rounded=1;whiteSpace=wrap;html=1;" parent="1" vertex="1">
          <mxGeometry x="-225" y="-410" width="120" height="60" as="geometry" />
        </mxCell>
        <mxCell id="FAJjrMWwDWymDbKwODyn-27" value="Chon 1 thanh phan" style="rounded=1;whiteSpace=wrap;html=1;" parent="1" vertex="1">
          <mxGeometry x="-225" y="-290" width="120" height="60" as="geometry" />
        </mxCell>
        <mxCell id="FAJjrMWwDWymDbKwODyn-28" value="" style="rhombus;whiteSpace=wrap;html=1;" parent="1" vertex="1">
          <mxGeometry x="-197.5" y="-170" width="65" height="30" as="geometry" />
        </mxCell>
        <mxCell id="FAJjrMWwDWymDbKwODyn-29" value="Trinh bay thong tin sach" style="rounded=1;whiteSpace=wrap;html=1;" parent="1" vertex="1">
          <mxGeometry x="-225" y="-80" width="120" height="60" as="geometry" />
        </mxCell>
        <mxCell id="FAJjrMWwDWymDbKwODyn-30" value="Trinh bay thong tin muon/tra" style="rounded=1;whiteSpace=wrap;html=1;" parent="1" vertex="1">
          <mxGeometry x="-480" y="-410" width="120" height="60" as="geometry" />
        </mxCell>
        <mxCell id="FAJjrMWwDWymDbKwODyn-32" value="Thanh vien" style="text;html=1;align=center;verticalAlign=middle;resizable=0;points=[];autosize=1;strokeColor=none;fillColor=none;" parent="1" vertex="1">
          <mxGeometry x="320" y="-935" width="80" height="30" as="geometry" />
        </mxCell>
        <mxCell id="FAJjrMWwDWymDbKwODyn-33" value="" style="ellipse;html=1;shape=endState;fillColor=#000000;strokeColor=#ff0000;" parent="1" vertex="1">
          <mxGeometry x="75" y="-515" width="30" height="30" as="geometry" />
        </mxCell>
        <mxCell id="FAJjrMWwDWymDbKwODyn-34" value="" style="ellipse;html=1;shape=endState;fillColor=#000000;strokeColor=#ff0000;" parent="1" vertex="1">
          <mxGeometry x="-435" y="40" width="30" height="30" as="geometry" />
        </mxCell>
        <mxCell id="FAJjrMWwDWymDbKwODyn-35" value="" style="rhombus;whiteSpace=wrap;html=1;" parent="1" vertex="1">
          <mxGeometry x="-200" y="40" width="70" height="30" as="geometry" />
        </mxCell>
        <mxCell id="FAJjrMWwDWymDbKwODyn-36" value="Xem them chi tiet trong AD&lt;div&gt;cua &quot;Thanh vien&quot;&lt;/div&gt;" style="shape=note;size=20;whiteSpace=wrap;html=1;" parent="1" vertex="1">
          <mxGeometry x="285" y="-290" width="150" height="70" as="geometry" />
        </mxCell>
        <mxCell id="FAJjrMWwDWymDbKwODyn-37" value="" style="ellipse;html=1;shape=endState;fillColor=#000000;strokeColor=#ff0000;" parent="1" vertex="1">
          <mxGeometry x="345" y="-65" width="30" height="30" as="geometry" />
        </mxCell>
        <mxCell id="FAJjrMWwDWymDbKwODyn-38" value="Xu ly muon sach" style="rounded=1;whiteSpace=wrap;html=1;" parent="1" vertex="1">
          <mxGeometry x="300" y="-185" width="120" height="60" as="geometry" />
        </mxCell>
        <mxCell id="FAJjrMWwDWymDbKwODyn-39" value="" style="endArrow=none;dashed=1;html=1;rounded=0;entryX=0.5;entryY=1;entryDx=0;entryDy=0;entryPerimeter=0;exitX=0.5;exitY=0;exitDx=0;exitDy=0;" parent="1" source="FAJjrMWwDWymDbKwODyn-38" target="FAJjrMWwDWymDbKwODyn-36" edge="1">
          <mxGeometry width="50" height="50" relative="1" as="geometry">
            <mxPoint x="50" y="-100" as="sourcePoint" />
            <mxPoint x="100" y="-150" as="targetPoint" />
          </mxGeometry>
        </mxCell>
        <mxCell id="FAJjrMWwDWymDbKwODyn-40" value="" style="endArrow=classic;html=1;rounded=0;exitX=0.5;exitY=1;exitDx=0;exitDy=0;entryX=0.5;entryY=0;entryDx=0;entryDy=0;" parent="1" source="FAJjrMWwDWymDbKwODyn-38" target="FAJjrMWwDWymDbKwODyn-37" edge="1">
          <mxGeometry width="50" height="50" relative="1" as="geometry">
            <mxPoint x="50" y="-100" as="sourcePoint" />
            <mxPoint x="100" y="-150" as="targetPoint" />
          </mxGeometry>
        </mxCell>
        <mxCell id="FAJjrMWwDWymDbKwODyn-41" value="" style="endArrow=classic;html=1;rounded=0;exitX=0.5;exitY=1;exitDx=0;exitDy=0;entryX=0.5;entryY=0;entryDx=0;entryDy=0;" parent="1" source="FAJjrMWwDWymDbKwODyn-8" target="FAJjrMWwDWymDbKwODyn-24" edge="1">
          <mxGeometry width="50" height="50" relative="1" as="geometry">
            <mxPoint x="-110" y="-230" as="sourcePoint" />
            <mxPoint x="-60" y="-280" as="targetPoint" />
          </mxGeometry>
        </mxCell>
        <mxCell id="FAJjrMWwDWymDbKwODyn-42" value="" style="endArrow=classic;html=1;rounded=0;exitX=0.5;exitY=1;exitDx=0;exitDy=0;entryX=0.5;entryY=0;entryDx=0;entryDy=0;" parent="1" source="FAJjrMWwDWymDbKwODyn-24" target="FAJjrMWwDWymDbKwODyn-26" edge="1">
          <mxGeometry width="50" height="50" relative="1" as="geometry">
            <mxPoint x="-110" y="-230" as="sourcePoint" />
            <mxPoint x="-60" y="-280" as="targetPoint" />
          </mxGeometry>
        </mxCell>
        <mxCell id="FAJjrMWwDWymDbKwODyn-43" value="" style="endArrow=classic;html=1;rounded=0;exitX=0.5;exitY=1;exitDx=0;exitDy=0;entryX=0.5;entryY=0;entryDx=0;entryDy=0;" parent="1" source="FAJjrMWwDWymDbKwODyn-26" target="FAJjrMWwDWymDbKwODyn-27" edge="1">
          <mxGeometry width="50" height="50" relative="1" as="geometry">
            <mxPoint x="-110" y="-230" as="sourcePoint" />
            <mxPoint x="-60" y="-280" as="targetPoint" />
          </mxGeometry>
        </mxCell>
        <mxCell id="FAJjrMWwDWymDbKwODyn-44" value="" style="endArrow=classic;html=1;rounded=0;exitX=0.5;exitY=1;exitDx=0;exitDy=0;entryX=0.5;entryY=0;entryDx=0;entryDy=0;" parent="1" source="FAJjrMWwDWymDbKwODyn-27" target="FAJjrMWwDWymDbKwODyn-28" edge="1">
          <mxGeometry width="50" height="50" relative="1" as="geometry">
            <mxPoint x="-110" y="-230" as="sourcePoint" />
            <mxPoint x="-60" y="-280" as="targetPoint" />
          </mxGeometry>
        </mxCell>
        <mxCell id="FAJjrMWwDWymDbKwODyn-45" value="" style="endArrow=classic;html=1;rounded=0;exitX=0.5;exitY=1;exitDx=0;exitDy=0;entryX=0.5;entryY=0;entryDx=0;entryDy=0;" parent="1" source="FAJjrMWwDWymDbKwODyn-28" target="FAJjrMWwDWymDbKwODyn-29" edge="1">
          <mxGeometry width="50" height="50" relative="1" as="geometry">
            <mxPoint x="-110" y="-230" as="sourcePoint" />
            <mxPoint x="-60" y="-280" as="targetPoint" />
          </mxGeometry>
        </mxCell>
        <mxCell id="FAJjrMWwDWymDbKwODyn-46" value="" style="endArrow=classic;html=1;rounded=0;exitX=0.5;exitY=1;exitDx=0;exitDy=0;entryX=0.5;entryY=0;entryDx=0;entryDy=0;" parent="1" source="FAJjrMWwDWymDbKwODyn-29" target="FAJjrMWwDWymDbKwODyn-35" edge="1">
          <mxGeometry width="50" height="50" relative="1" as="geometry">
            <mxPoint x="-110" y="-230" as="sourcePoint" />
            <mxPoint x="-60" y="-280" as="targetPoint" />
          </mxGeometry>
        </mxCell>
        <mxCell id="FAJjrMWwDWymDbKwODyn-47" value="" style="endArrow=classic;html=1;rounded=0;exitX=0.5;exitY=1;exitDx=0;exitDy=0;entryX=0.5;entryY=0;entryDx=0;entryDy=0;" parent="1" source="FAJjrMWwDWymDbKwODyn-7" target="FAJjrMWwDWymDbKwODyn-25" edge="1">
          <mxGeometry width="50" height="50" relative="1" as="geometry">
            <mxPoint x="-110" y="-230" as="sourcePoint" />
            <mxPoint x="-60" y="-280" as="targetPoint" />
          </mxGeometry>
        </mxCell>
        <mxCell id="FAJjrMWwDWymDbKwODyn-48" value="" style="endArrow=classic;html=1;rounded=0;exitX=0.5;exitY=1;exitDx=0;exitDy=0;entryX=0.5;entryY=0;entryDx=0;entryDy=0;" parent="1" source="FAJjrMWwDWymDbKwODyn-25" target="FAJjrMWwDWymDbKwODyn-30" edge="1">
          <mxGeometry width="50" height="50" relative="1" as="geometry">
            <mxPoint x="-110" y="-230" as="sourcePoint" />
            <mxPoint x="-60" y="-280" as="targetPoint" />
          </mxGeometry>
        </mxCell>
        <mxCell id="FAJjrMWwDWymDbKwODyn-49" value="" style="endArrow=classic;html=1;rounded=0;exitX=0.5;exitY=1;exitDx=0;exitDy=0;entryX=0.5;entryY=0;entryDx=0;entryDy=0;" parent="1" source="FAJjrMWwDWymDbKwODyn-30" target="FAJjrMWwDWymDbKwODyn-34" edge="1">
          <mxGeometry width="50" height="50" relative="1" as="geometry">
            <mxPoint x="-110" y="-230" as="sourcePoint" />
            <mxPoint x="-60" y="-280" as="targetPoint" />
          </mxGeometry>
        </mxCell>
        <mxCell id="FAJjrMWwDWymDbKwODyn-50" value="" style="endArrow=classic;html=1;rounded=0;entryX=1;entryY=0.5;entryDx=0;entryDy=0;exitX=0;exitY=0.5;exitDx=0;exitDy=0;" parent="1" source="FAJjrMWwDWymDbKwODyn-28" target="FAJjrMWwDWymDbKwODyn-25" edge="1">
          <mxGeometry width="50" height="50" relative="1" as="geometry">
            <mxPoint x="-200" y="-150" as="sourcePoint" />
            <mxPoint x="-60" y="-280" as="targetPoint" />
            <Array as="points">
              <mxPoint x="-310" y="-155" />
              <mxPoint x="-310" y="-535" />
            </Array>
          </mxGeometry>
        </mxCell>
        <mxCell id="FAJjrMWwDWymDbKwODyn-51" value="" style="endArrow=classic;html=1;rounded=0;exitX=1;exitY=0.5;exitDx=0;exitDy=0;entryX=0;entryY=0.5;entryDx=0;entryDy=0;" parent="1" source="FAJjrMWwDWymDbKwODyn-28" target="FAJjrMWwDWymDbKwODyn-38" edge="1">
          <mxGeometry width="50" height="50" relative="1" as="geometry">
            <mxPoint x="-110" y="-230" as="sourcePoint" />
            <mxPoint x="-60" y="-280" as="targetPoint" />
          </mxGeometry>
        </mxCell>
        <mxCell id="FAJjrMWwDWymDbKwODyn-52" value="" style="endArrow=classic;html=1;rounded=0;exitX=0.5;exitY=1;exitDx=0;exitDy=0;entryX=0.5;entryY=0;entryDx=0;entryDy=0;" parent="1" source="FAJjrMWwDWymDbKwODyn-9" target="FAJjrMWwDWymDbKwODyn-33" edge="1">
          <mxGeometry width="50" height="50" relative="1" as="geometry">
            <mxPoint x="-60" y="-320" as="sourcePoint" />
            <mxPoint x="-10" y="-370" as="targetPoint" />
          </mxGeometry>
        </mxCell>
        <mxCell id="FAJjrMWwDWymDbKwODyn-53" value="" style="endArrow=none;html=1;rounded=0;" parent="1" edge="1">
          <mxGeometry width="50" height="50" relative="1" as="geometry">
            <mxPoint x="-34" y="136.66666666666674" as="sourcePoint" />
            <mxPoint x="-34" y="-913.166666666667" as="targetPoint" />
          </mxGeometry>
        </mxCell>
        <mxCell id="FAJjrMWwDWymDbKwODyn-54" value="" style="endArrow=none;html=1;rounded=0;" parent="1" target="FAJjrMWwDWymDbKwODyn-20" edge="1">
          <mxGeometry width="50" height="50" relative="1" as="geometry">
            <mxPoint x="230" y="130" as="sourcePoint" />
            <mxPoint x="160" y="-430" as="targetPoint" />
          </mxGeometry>
        </mxCell>
        <mxCell id="FAJjrMWwDWymDbKwODyn-55" value="" style="endArrow=none;html=1;rounded=0;" parent="1" target="FAJjrMWwDWymDbKwODyn-20" edge="1">
          <mxGeometry width="50" height="50" relative="1" as="geometry">
            <mxPoint x="470" y="137.9998779296875" as="sourcePoint" />
            <mxPoint x="160" y="-640" as="targetPoint" />
          </mxGeometry>
        </mxCell>
        <mxCell id="FAJjrMWwDWymDbKwODyn-56" value="[Xem lich su muon tra]" style="text;html=1;align=center;verticalAlign=middle;resizable=0;points=[];autosize=1;strokeColor=none;fillColor=none;" parent="1" vertex="1">
          <mxGeometry x="-320" y="-185" width="140" height="30" as="geometry" />
        </mxCell>
        <mxCell id="FAJjrMWwDWymDbKwODyn-57" value="[else]" style="text;html=1;align=center;verticalAlign=middle;resizable=0;points=[];autosize=1;strokeColor=none;fillColor=none;" parent="1" vertex="1">
          <mxGeometry x="-225" y="-122" width="50" height="30" as="geometry" />
        </mxCell>
        <mxCell id="FAJjrMWwDWymDbKwODyn-58" value="[Muon sach]" style="text;html=1;align=center;verticalAlign=middle;resizable=0;points=[];autosize=1;strokeColor=none;fillColor=none;" parent="1" vertex="1">
          <mxGeometry x="40" y="-152" width="90" height="30" as="geometry" />
        </mxCell>
        <mxCell id="FAJjrMWwDWymDbKwODyn-60" value="" style="endArrow=classic;html=1;rounded=0;exitX=0;exitY=0.5;exitDx=0;exitDy=0;entryX=1;entryY=0.5;entryDx=0;entryDy=0;" parent="1" edge="1">
          <mxGeometry width="50" height="50" relative="1" as="geometry">
            <mxPoint x="-199.99999999999977" y="56.33000000000004" as="sourcePoint" />
            <mxPoint x="-405.0000000000134" y="56.33000000000004" as="targetPoint" />
          </mxGeometry>
        </mxCell>
        <mxCell id="FAJjrMWwDWymDbKwODyn-61" value="" style="endArrow=classic;html=1;rounded=0;exitX=1;exitY=0.5;exitDx=0;exitDy=0;entryX=1;entryY=0.5;entryDx=0;entryDy=0;" parent="1" source="FAJjrMWwDWymDbKwODyn-15" target="FAJjrMWwDWymDbKwODyn-35" edge="1">
          <mxGeometry width="50" height="50" relative="1" as="geometry">
            <mxPoint x="-240" y="70" as="sourcePoint" />
            <mxPoint x="-60" y="60" as="targetPoint" />
            <Array as="points">
              <mxPoint x="-70" y="-735" />
              <mxPoint x="-70" y="55" />
            </Array>
          </mxGeometry>
        </mxCell>
        <mxCell id="FAJjrMWwDWymDbKwODyn-62" value="[Tim kiem lan nua]" style="text;html=1;align=center;verticalAlign=middle;resizable=0;points=[];autosize=1;strokeColor=none;fillColor=none;" parent="1" vertex="1">
          <mxGeometry x="-160" y="58" width="120" height="30" as="geometry" />
        </mxCell>
        <mxCell id="FAJjrMWwDWymDbKwODyn-63" value="[else]" style="text;html=1;align=center;verticalAlign=middle;resizable=0;points=[];autosize=1;strokeColor=none;fillColor=none;" parent="1" vertex="1">
          <mxGeometry x="-320" y="28" width="50" height="30" as="geometry" />
        </mxCell>
      </root>
    </mxGraphModel>
  </diagram>
</mxfile>
